<svg width="420" height="420" viewBox="0 0 420 420" fill="none" xmlns="http://www.w3.org/2000/svg">
<path d="M227.5 35H192.5V105H157.5V70H122.5V105H157.5V140H192.5V192.5H140V157.5H105V122.5H70V157.5H105V192.5H35V227.5H105V262.5H70V297.5H105V262.5H140V227.5H192.5V280H157.5V315H122.5V350H157.5V315H192.5V385H227.5V315H262.5V350H297.5V315H262.5V280H227.5V227.5H280V262.5H315V297.5H350V262.5H315V227.5H385V192.5H315V157.5H350V122.5H315V157.5H280V192.5H227.5V140H262.5V105H297.5V70H262.5V105H227.5V35Z" fill="currentColor"/>
</svg>
